# xmcd CD database file
# Copyright (C) 1996 Ti Kan
#
# Track frame offsets:
#	150
#	17933
#	33686
#	49820
#	65105
#	82200
# Disc length: 1422 seconds
#
# Revision: 1
# Processed by: cddbd v1.4PL0 Copyright (c) Steve Scherf et al.
# Submitted via: CDCOPY 4.744
#
DISCID=57058c06
DTITLE=Clem Snide - Moment in the Sun EP
DYEAR=1900
DGENRE=
TTITLE0=Moment In The Sun (Radio Edit)
TTITLE1=I Believe Your Lies
TTITLE2=Now The Moment's Gone
TTITLE3=Do You Love Me?
TTITLE4=Your Favorite Music (Master Key Mix)
TTITLE5=Moment In The Sun (Album Version)
EXTD=
EXTT0=
EXTT1=
EXTT2=
EXTT3=
EXTT4=
EXTT5=
PLAYORDER=
